<?xml version="1.0" encoding="utf-8"?>
<!-- Generator: Adobe Illustrator 28.2.0, SVG Export Plug-In . SVG Version: 6.00 Build 0)  -->
<svg version="1.1" xmlns="http://www.w3.org/2000/svg" xmlns:xlink="http://www.w3.org/1999/xlink" x="0px" y="0px"
	 viewBox="0 0 2640.7 1662" style="enable-background:new 0 0 2640.7 1662;" xml:space="preserve">
<style type="text/css">
	.st0{fill:#4C5096;}
	.st1{fill:#898CBA;}
	.st2{fill:#6A6EA8;}
	.st3{fill:#FFFFFF;}
	.st4{fill:url(#SVGID_1_);}
	.st5{fill:url(#SVGID_00000065781671183557813540000001240956633401581964_);}
	.st6{fill:url(#SVGID_00000093149866314237875110000005859598420132522409_);}
	.st7{fill:url(#SVGID_00000166669252271789139300000009859919807507595395_);}
	.st8{fill:url(#SVGID_00000167379713771336291030000017050714956712727939_);}
	.st9{fill:url(#SVGID_00000109005845510332530480000001753773457119822985_);}
	.st10{fill:url(#SVGID_00000114762259417893387220000007103015846633460903_);}
	.st11{fill:url(#SVGID_00000168824732648935138520000014813523939525341858_);}
	.st12{fill:url(#SVGID_00000016754390569920132810000007910830420926639241_);}
	.st13{fill:url(#SVGID_00000130616465742927940770000010868951257973492911_);}
	.st14{fill:url(#SVGID_00000181057210791690891820000008306502762905546649_);}
	.st15{fill:url(#SVGID_00000027601050742399018620000003329181226869503908_);}
	.st16{fill:url(#SVGID_00000047046447255006354450000015362830834049108126_);}
	.st17{fill:url(#SVGID_00000160181984244639355350000006849731399617072781_);}
	.st18{fill:url(#SVGID_00000110461072543790490730000001376691075123253145_);}
	.st19{fill:url(#SVGID_00000060016391771975021320000003327877525391189657_);}
	.st20{fill:url(#SVGID_00000119102486081552691510000002511534354815293326_);}
	.st21{fill:url(#SVGID_00000172436198931803620250000000141432758212586172_);}
	.st22{fill:url(#SVGID_00000133502883896965696080000006478994816388792496_);}
</style>
<g id="Background">
</g>
<g id="Object">
	<g>
		<path class="st0" d="M951.5,807.7c-1.6-0.5-3.3-0.8-5-1c-2-0.2-4-0.6-5.9-1.3c-1.5-0.5-4.5-1.4-4.6-3.4c-0.3-3.3,5.7-3.5,8.9-5.1
			c11.2-5.3,19.6-12.8,20.1-25.4c0.5-12.5-8.4-19.3-18.8-24.6c-7.5-3.8-15.2-7.1-22.7-10.9c-12.2-6.4-22.3-15-28.2-27.3
			c-5.5-11.4-4.7-21.8,6-30.3c3.7-2.9,7.6-6.7,5.8-11.7c-2.3-6.4-8.3-4.7-13.7-4.4c-6.3,0.3-13,0.5-19-1.7
			c-6.7-2.5-10.2-9.3-12.9-15.4c-21.3-48.2-25.4-66-25.8-117.3c-0.1-9.1,8.2-10,15.3-10.9c11.6-1.5,23.3-3,35-4.2
			c6-0.6,15.8-1.1,16.5-9c0.6-7.1-6.8-9.4-12.4-11.2c-17.3-5.4-27.1-7.9-43.2-12.2c-1.3-0.3-5.6-1.6-4-3.6c0.4-0.5,1-0.7,1.5-1
			c4.9-2.2,12.9-4,11-10.9c-1-3.9-6.4-5.1-9.9-5.3c-3.5-0.2-7-0.3-10.5-0.3c-1.9,0-2.7-2.3-1.3-3.5c15.8-13.8,24.9-35,22.2-58.1
			c-3.6-30.3-28.1-54.6-58.4-57.9c-1.9-0.2-3.8-0.3-5.7-0.4c-1.9,0-3.8,0.2-5.7,0.4c-30.3,3.3-54.8,27.6-58.4,57.9
			c-2.8,23.2,6.4,44.3,22.2,58.1c1.4,1.2,0.6,3.5-1.3,3.5c-3.5,0-7,0.1-10.5,0.3c-3.5,0.2-8.8,1.4-9.9,5.3c-1.9,6.9,6.2,8.7,11,10.9
			c0.5,0.3,1.1,0.5,1.5,1c1.7,2-2.6,3.3-4,3.6c-16.1,4.2-25.9,6.8-43.2,12.2c-5.6,1.7-13,4-12.4,11.2c0.7,7.9,10.5,8.4,16.5,9
			c11.7,1.2,23.3,2.7,35,4.2c7.1,0.9,15.4,1.8,15.3,10.9c-0.4,51.4-4.5,69.1-25.8,117.3c-2.7,6.1-6.2,12.9-12.9,15.4
			c-6,2.3-12.7,2-19,1.7c-5.4-0.3-11.4-1.9-13.7,4.4c-1.8,5.1,2.1,8.8,5.8,11.7c10.8,8.5,11.5,18.8,6,30.3
			c-5.9,12.4-16,20.9-28.2,27.3c-7.4,3.9-15.2,7.1-22.7,10.9c-10.4,5.3-19.3,12.1-18.8,24.6c0.5,12.6,8.9,20.1,20.1,25.4
			c3.2,1.6,9.2,1.8,8.9,5.1c-0.1,1.9-3.1,2.9-4.6,3.4c-1.9,0.6-3.9,1-5.9,1.3c-4.9,0.6-9.5,2.1-13.5,5.1c-3.6,2.7-6.4,6.4-8.1,10.6
			c-1.2,3-1.8,6.2-1.8,9.4v10.3c0,5.4,4.4,9.7,9.7,9.7H792h168.2c5.4,0,9.7-4.4,9.7-9.7c0,0,0-10.3,0-10.3c0-6-2.2-11.9-6.1-16.4
			C960.6,811.7,956.2,809.1,951.5,807.7z"/>
		<path class="st0" d="M2025,807.7c-1.6-0.5-3.3-0.8-5-1c-2-0.2-4-0.6-5.9-1.3c-1.5-0.5-4.5-1.4-4.6-3.4c-0.3-3.3,5.7-3.5,8.9-5.1
			c11.2-5.3,19.6-12.8,20.1-25.4c0.5-12.5-8.4-19.3-18.8-24.6c-7.5-3.8-15.2-7.1-22.7-10.9c-12.2-6.4-22.3-15-28.2-27.3
			c-5.5-11.4-4.7-21.8,6-30.3c3.7-2.9,7.6-6.7,5.8-11.7c-2.3-6.4-8.3-4.7-13.7-4.4c-6.3,0.3-13,0.5-19-1.7
			c-6.7-2.5-10.2-9.3-12.9-15.4c-21.3-48.2-25.4-66-25.8-117.3c-0.1-9.1,8.2-10,15.3-10.9c11.6-1.5,23.3-3,35-4.2
			c6-0.6,15.8-1.1,16.5-9c0.6-7.1-6.8-9.4-12.4-11.2c-17.3-5.4-27.1-7.9-43.2-12.2c-1.3-0.3-5.6-1.6-4-3.6c0.4-0.5,1-0.7,1.5-1
			c4.9-2.2,12.9-4,11-10.9c-1-3.9-6.4-5.1-9.9-5.3c-3.5-0.2-7-0.3-10.5-0.3c-1.9,0-2.7-2.3-1.3-3.5c15.8-13.8,24.9-35,22.2-58.1
			c-3.6-30.3-28.1-54.6-58.4-57.9c-1.9-0.2-3.8-0.3-5.7-0.4c-1.9,0-3.8,0.2-5.7,0.4c-30.3,3.3-54.8,27.6-58.4,57.9
			c-2.8,23.2,6.4,44.3,22.2,58.1c1.4,1.2,0.6,3.5-1.3,3.5c-3.5,0-7,0.1-10.5,0.3c-3.5,0.2-8.8,1.4-9.9,5.3c-1.9,6.9,6.2,8.7,11,10.9
			c0.5,0.3,1.1,0.5,1.5,1c1.7,2-2.6,3.3-4,3.6c-16.1,4.2-25.9,6.8-43.2,12.2c-5.6,1.7-13,4-12.4,11.2c0.7,7.9,10.5,8.4,16.5,9
			c11.7,1.2,23.3,2.7,35,4.2c7.1,0.9,15.4,1.8,15.3,10.9c-0.4,51.4-4.5,69.1-25.8,117.3c-2.7,6.1-6.2,12.9-12.9,15.4
			c-6,2.3-12.7,2-19,1.7c-5.4-0.3-11.4-1.9-13.7,4.4c-1.8,5.1,2.1,8.8,5.8,11.7c10.8,8.5,11.5,18.8,6,30.3
			c-5.9,12.4-16,20.9-28.2,27.3c-7.4,3.9-15.2,7.1-22.7,10.9c-10.4,5.3-19.3,12.1-18.8,24.6c0.5,12.6,8.9,20.1,20.1,25.4
			c3.2,1.6,9.2,1.8,8.9,5.1c-0.1,1.9-3.1,2.9-4.6,3.4c-1.9,0.6-3.9,1-5.9,1.3c-4.9,0.6-9.5,2.1-13.5,5.1c-3.6,2.7-6.4,6.4-8.1,10.6
			c-1.2,3-1.8,6.2-1.8,9.4v10.3c0,5.4,4.4,9.7,9.7,9.7h168.2h168.2c5.4,0,9.7-4.4,9.7-9.7c0,0,0-10.3,0-10.3c0-6-2.2-11.9-6.1-16.4
			C2034.1,811.7,2029.7,809.1,2025,807.7z"/>
		<g>
			<polygon id="floor1" class="st1" points="530.9,1019.1 0,1019.1 316.9,885.9 720.3,885.9 			"/>
			<polygon id="floor2" class="st1" points="2640.7,1019.1 2109.8,1019.1 1920.4,885.9 2323.8,885.9 			"/>
			<polygon id="floor3" class="st1" points="942.4,1275.2 166.5,1275.2 530.9,1019.1 1061.8,1019.1 			"/>
			<polygon id="floor4" class="st1" points="2494.2,1275.2 1718.3,1275.2 1592.6,1019.1 2123.5,1019.1 			"/>
			<polygon id="floor5" class="st2" points="1906.6,1658.8 762.1,1662 942.4,1275.2 1718.3,1275.2 			"/>
		</g>
		<path class="st3" d="M859.2,1005.5c-21.2,0-38.5-16.7-38.5-37.3v-20.7c0-15.3,6.6-29.1,17.3-39.1c-6.9-11.1-8.3-22.3-7.6-31.3
			c2.4-32.6,31.9-44,44.4-48.9c4.2-1.6,8.4-3.1,12.7-4.7c9.6-3.5,18.8-6.8,26.5-10.9c9.8-5.3,12.5-9.7,12.7-10.9
			c0.2-1.1-0.8-5.5-7.5-12.7c-10.8-11.7-12-22.9-11.1-30.2c1.2-9.4,6.4-17.5,14.6-22.8c9.9-6.3,20.7-7.7,28-8.2
			c1.4-0.1,2.8-0.1,4.2-0.1c0.9,0,1.8,0,2.7,0c18.8-69.1,23.9-145,15-225.9l-0.6-5.6c-1.5-15.1-4.1-40.3-13.5-48.7
			c-2.5-2.2-8.5-3.8-17.7-4.6c-22.1-2.1-35.1-15.9-34.9-37c0.2-23,0.3-54.5,0.1-94.5c0-11.3,3.6-20.3,10.7-26.9
			c10-8.9,21.2-8.9,24.8-8.9l3.2,0h28.9c1.1,0,4.7,0.1,4.7,0.1h3.2l2.1,0c6,0,11.2,1.3,16.1,4c0.2,0.1,0.5,0.3,0.7,0.4
			c1-0.7,2-1.3,3-1.8c6.5-3.4,12.4-3.9,16.9-3.9h82.9c4.4,0,10.3,0.4,16.9,3.9c1,0.5,2,1.1,3,1.8c0.1-0.1,0.2-0.1,0.3-0.2
			c5.2-2.9,10.5-4.2,16.5-4.2l5.4,0c0,0,3.6-0.1,4.7-0.1l30,0l2.2,0c3.7,0,14.8,0,24.5,8.6c7.4,6.8,11,15.8,11,27
			c-0.3,41.1-0.1,73.7,0.1,94.7c0.2,21.1-12.8,34.9-34.8,37c-9.3,0.8-15.3,2.4-17.9,4.7c-9.3,8.3-11.9,33.5-13.4,48.6l-0.6,5.5
			c-8.8,80.9-3.8,156.8,15,225.9c0.9,0,1.8,0,2.7,0c1.4,0,2.8,0,4.2,0.1c7.4,0.5,18.2,1.9,28,8.2c8.3,5.3,13.5,13.4,14.7,22.8
			c0.9,7.3-0.3,18.4-11.1,30.2c-6.7,7.2-7.6,11.6-7.5,12.7c0.2,1.2,2.9,5.6,12.7,10.9c7.7,4.2,16.8,7.5,26.5,10.9
			c4.2,1.5,8.5,3.1,12.7,4.7c12.5,4.8,42,16.2,44.4,48.9c0.7,9-0.7,20.2-7.6,31.3c10.6,10,17.2,23.8,17.2,39.1v20.7
			c0,20.6-17.3,37.3-38.5,37.3H859.2z"/>
		<path class="st0" d="M1276.6,947.6v20.7c0,6.1-5.5,11.1-12.3,11.1H859.2c-6.8,0-12.3-5-12.3-11.1v-20.7
			c0-15.9,14.2-28.8,31.8-28.8h9.1c0.2-0.5,0.4-1,0.5-1.5c0.8-4.7-5.6-4.5-8.9-6.3c-13.5-7.3-24.1-16.8-23-31.9
			c1.1-14.9,14.2-21.2,27.8-26.4c14.1-5.5,29-9.9,42.1-17c30.8-16.6,34.6-39.9,12-64.4c-3.5-3.7-7.1-9.6-1.5-13.2
			c4.4-2.8,10.2-3.7,15.5-4.1c5.1-0.3,10.3,0.6,15.2-0.2c9.2-1.4,12.5-9.2,14.5-16.5c21.7-78.1,25.3-158.3,16.5-238.3
			c-2.3-21.4-4.2-54.5-22.7-70.9c-7.4-6.5-17.7-9.8-32.8-11.1c-8.6-0.8-11.1-3.4-11.1-10.7c0.2-24.2,0.3-55.9,0.1-94.9
			c0-2.5,0.1-5.5,2.2-7.4c2.8-2.5,6.8-2,10.3-2h28.9c1.6,0,3.1,0.1,4.7,0.1h3.2c1.9,0,3.8-0.3,5.4,0.6c0.4,0.2,0.6,0.5,0.9,0.8
			c0.6,0.8,0.7,1.8,0.9,2.8c0.3,2.8,0.4,5.6,0.3,8.3c0,0,0,17.5,0,24.6c0,1.8-0.1,3.6-0.1,5.5c0,1.4,0.2,2.8,1.4,3.8
			c1.5,1.3,3.6,1.1,5.6,1.1c1.7,0,3.1,0,4.8,0c1.2,0,2.3,0.1,4,0c1.1,0,2.4,0,3.5-0.4c0.9-0.3,1.8-0.7,2.4-1.5
			c1.1-1.4,1.6-3.3,1.7-5c0.1-0.8,0.1-1.5,0.1-2.3c-0.2-6.4,0.6-22.1-0.1-28.5c-0.2-2.3-0.4-4.9,0.5-7.1c0.5-1.3,1.7-2.6,3-3.3
			c1.5-0.8,3-0.9,4.7-0.9h82.9c1.7,0,3.2,0.1,4.7,0.9c1.3,0.7,2.5,2,3,3.3c0.9,2.2,0.7,4.8,0.5,7.1c-0.7,6.4,0,22.1-0.1,28.5
			c0,0.8,0,1.5,0.1,2.3c0.1,1.7,0.6,3.6,1.7,5c0.6,0.7,1.5,1.2,2.4,1.5c1.1,0.4,2.4,0.3,3.5,0.4c1.7,0,2.8,0,4,0c1.7,0,3.1,0,4.8,0
			c1.9,0,4,0.2,5.6-1.1c1.2-1,1.4-2.4,1.4-3.8c0-1.8-0.1-3.6-0.1-5.5c0-7.1,0-24.6,0-24.6c-0.1-2.8,0-5.6,0.3-8.3
			c0.1-1,0.3-2,0.9-2.8c0.3-0.4,0.5-0.6,0.9-0.8c1.7-0.9,3.6-0.6,5.4-0.6h3.2c1.5,0,3.1-0.1,4.7-0.1h28.9c3.5,0,7.5-0.5,10.3,2
			c2.1,1.9,2.2,4.9,2.2,7.4c-0.2,39-0.1,70.7,0.1,94.9c0.1,7.3-2.5,9.9-11.1,10.7c-15.1,1.4-25.4,4.6-32.8,11.1
			c-18.4,16.4-20.4,49.6-22.7,70.9c-8.8,80-5.2,160.1,16.5,238.3c2,7.3,5.3,15.1,14.5,16.5c4.9,0.7,10.2-0.2,15.2,0.2
			c5.3,0.4,11.1,1.2,15.5,4.1c5.6,3.6,1.9,9.5-1.5,13.2c-22.6,24.4-18.7,47.8,12,64.4c13.1,7.1,28,11.5,42.1,17
			c13.5,5.2,26.7,11.5,27.8,26.4c1.1,15.1-9.4,24.6-23,31.9c-3.2,1.7-9.7,1.6-8.9,6.3c0.1,0.6,0.3,1.1,0.5,1.5h9.1
			C1262.4,918.8,1276.6,931.7,1276.6,947.6z"/>
		<path class="st3" d="M1431.9,1004.1c-19.6,0-35.6-16-35.6-35.6v-17.5c0-13.1,5-25,13.2-34c-3.4-7.3-5.2-16-3.8-26.5
			c4-30.2,30.6-38.8,42-42.5c2.8-0.9,5.6-1.8,8.4-2.6c8.4-2.6,16.4-5.1,23.2-8.3c3.5-1.7,5.7-3.2,6.9-4.3c-0.9-1.3-2.6-3.3-5.6-5.7
			c-16.4-13.4-15.3-28.5-13.2-36.3c0.1-0.4,0.2-0.8,0.4-1.2c-2.1,0.8-4.8,1.7-8,2.4c-2.4,0.5-4.8,0.7-7.1,0.7
			c-29.3,0-37.1-30.8-40-42.3c-0.4-1.4-0.6-2.6-0.9-3.6c-0.7-1.9-1.1-3.6-1.3-4.6c-2-6.4-2.2-13.2-0.7-20c-3.8-4.3-6.6-9.8-8.1-15.9
			l-2-8.4c-0.2-0.7-0.4-1.4-0.6-2c-0.3-1.1-0.7-2.1-1-3.2c-2.6-8.9-2.9-17-0.9-24.1c-6.2-9-7.4-18.5-7.9-23l-0.7-6
			c-0.4-3.6-0.8-7.1-1.3-10.7l-0.2-0.9c-1.7-9.3-1-16.7,1.1-22.4c-1.5-4.5-2-8.4-2.1-10.9c-0.2-5.4-0.6-10.9-0.9-16.3
			c-0.4-6.4-0.8-12.8-1-19.2c-0.7-9.3,1.3-16.1,4.3-21.2c-1.2-12.5,0.1-24.3,1.2-34.8c0.4-3.4,0.8-6.8,1-10.2
			c0.8-9.3,3.9-15.9,8-20.5c0-0.5,0.1-1,0.1-1.4c0.5-6.3,2.3-11.3,3.6-14.9c0.3-0.8,0.6-1.6,0.8-2.5c0.3-1.6,0.6-3.4,0.8-5.2
			c0.6-3.8,1.2-8.1,2.5-12.8c2.2-8.3,5.9-15.4,10.9-21.2c0.5-0.5,0.9-1.1,1.4-1.6c0.1-1.9,0.4-3.9,0.9-5.8c1.9-8.2,5.9-14.1,8.6-18
			l1.1-1.6c6.2-9.4,12.4-18.8,18.7-28.1l6.4-9.6l0.5-0.8c5.1-8.2,11.3-13.4,18.7-15.4c19.1-29,49.7-41.2,73.3-50.4
			c2.6-1.2,7.8-3.5,14.4-3.5c1,0,2,0.1,3,0.2c10.3-9,21.3-16.1,31.4-22.6c3.6-2.3,7.2-4.6,10.8-7.1c6.3-6.2,13.3-9.2,21.1-9.2
			c6.8,0,13.2,2.4,18.5,6.8c3,2.5,6.8,6.7,8.8,13.2c1.6-1.9,3.2-3.8,4.6-5.8c8-14,19.4-16.1,25.6-16.1c3.6,0,7.2,0.7,10.7,2.1
			c8.7,3.6,21.8,15.1,15.7,35.8c-4.4,24.1-10.9,45.2-19.8,64.3c-0.1,3.6,3.4,10.9,6.2,12.7l1.3,0.5c9.6,3.7,27.5,10.7,34.7,32.4
			c9.9,29.7,33.8,49.6,66.8,70.4c20.4,12.9,27.9,30.4,22.8,53.5c-0.3,1.3-0.6,2.5-1,3.7c8.7,25.4-6.3,44.9-13.8,54.7l-1.4,1.9
			c-8.9,11.7-19.1,14.1-26,14.1c-3.3,0-7-0.6-10.6-2c-7,4.5-15,6.9-23.4,6.9c-0.4,0-0.7,0-1.1,0c26,31.4,47.4,68.4,64.9,112.1
			c7.4,18.5,15.7,45.7,2.2,68.2c-10.6,17.7-29.7,24.9-48,28.3c0.5,12.5-5.8,23.4-18.9,32.4c3.1,3.9,7.9,6.7,15.3,9.2
			c4.5,1.5,9.2,2.7,14.3,4.1c4.2,1.1,8.4,2.3,12.6,3.5c25.8,7.8,39.5,22.8,40.7,44.6c0.5,8.7-1,17.1-4.5,24.7
			c8.2,9,13.3,21,13.3,34.1v17.5c0,19.6-16,35.6-35.6,35.6H1431.9z"/>
		<path class="st0" d="M1413,549.6c2.8-1,6,1.3,8.4,2.4c2.8,1.3,6,1.8,9.1,1.5c0.6-0.1,1.3-0.2,1.7-0.6c0.5-0.4,0.6-1.2,0.1-1.6
			c-0.2-0.2-0.5-0.2-0.7-0.3c-3.4-0.9-6.6-2.4-9.5-4.3c-2.5-1.7-6.7-4.3-7.2-7.4c-2.3-14.8,0.6-29.5,1.8-44.2
			c0.6-7.4,3.2-7.1,8.1-3.3c2.4,1.8,5.2,2.6,8,3.4c0.8,0.2,3.6,1.1,4.3,0.1c0.6-0.9-0.9-2.1-1.4-2.7c-3-2.8-6.8-3.9-8.7-7.8
			c-1.7-3.6-2.6-7.6-2.3-11.6c0.4-4.9,3.1-9.4,4-14.3c1.1-5.5,1.5-11,2.9-16.4c1-3.9,2.7-7.6,5.3-10.7c1.3-1.5,3-3.1,4.7-4.1
			c2.1-1.3,4.9-0.8,7.3-1c0.5-0.1,1.1-0.1,1.5-0.4s0.7-0.9,0.5-1.3c-0.1-0.4-0.5-0.6-0.8-0.9c-3.9-2.7-6.1-6.2-5-11.1
			c0.9-4.2,3.8-7.6,6.1-11.1c8.2-12.6,16.6-25,25-37.4c2.8-4.1,4.9-10,9.1-0.5c2.3,5.3,2.5-0.4,2.9-1.4
			c12.1-31.9,40.2-43.9,68.8-55.1c2.3-0.9,6.5-3.9,7,2.2c0.5,7.2,3.9,4.8,6.4,1.6c14.4-17.7,34.4-28,52.7-40.6
			c1.9-1.3,3.6-5.1,6.4-2.7c1.1,0.9,0.6,4.4,0.1,6.5c-3.6,14.1-8.5,27.8-15.8,40.5c-2.1,3.7-3.5,7.4,1.9,8.1
			c6.2,0.9,13.5,11.5,16.9,5.1c12.2-23.2,34.1-37.7,48.9-58.3c1.3-1.8,2.3-5.2,4.5-4.3c2.1,0.8,0.4,3.9,0,6
			c-3.7,20.6-9.4,40.6-18.3,59.7c-7,14.9,4.9,40.9,20.1,46.9c8.7,3.5,17.8,6.2,21.4,17.1c13.2,39.6,44.7,63.5,77.6,84.3
			c12.3,7.8,13.7,14.6,11.2,25.8c-1.1,4.8-4,9.5-1.5,14.5c7.2,14.8-1.9,25-9.9,35.5c-3.9,5.1-7.6,5.6-9-1.5
			c-1.6-8.2-7.9-11.9-13.8-16c-2.1-1.4-4.8-4.6-6.9-1.6c-1.8,2.5,1.6,5.1,3.6,6.2c11.2,6.5,5.9,10.3-1,16.6
			c-9.3,8.7-18.4,3.6-27.7,2.3c-10.8-1.4-17.7-7.3-17.4-18.9c0.3-9.7-5-15.1-12.7-19.1c-8.9-4.8-18.4-7.5-28.4-9.1
			c-13.4-2.3-26.8-5-40.1-7.6c-2.4-0.5-5-3.7-6.8-0.3c-0.6,1.1,1.3,4.2,2.7,5.8c5.7,6.4,11.4,13,17.7,18.8
			c16.4,15.1,33.2,29.7,49.6,44.7c41.4,37.9,69.8,84.8,90.4,136.3c16.8,42,6.3,57.9-38.4,62.8c-13.1,1.4-26.3,2.1-39.4,2.7
			c-4.9,0.2-7.7,1.9-7.9,7.1c-0.2,6,4.3,4.7,7.6,4.9c5.9,0.4,11.8,0.4,17.7,1c4.8,0.5,10.5,0.1,12.3,6.4c1.8,6.7-2.7,9.7-7.4,12.9
			c-14.5,9.8-16.5,23.2-5.8,37c7.3,9.4,17.2,14.7,28.1,18.3c9,3,18.4,5,27.5,7.8c10.9,3.3,21.4,8.2,22.2,21
			c0.7,12.9-6.9,22.1-18,28.3c-2.6,1.4-7.5,1.6-7.3,4.6h9.6c13.5,0,24.4,10.9,24.4,24.4v17.5c0,5.2-4.2,9.4-9.4,9.4h-370.7
			c-5.2,0-9.4-4.2-9.4-9.4v-17.5c0-13.5,10.9-24.4,24.4-24.4h9.5c-0.5-3-4.4-3.2-6.7-4.7c-10.3-6.7-19.8-14.3-18-28
			c1.8-13.3,12.9-17.5,24.1-21.1c11.7-3.8,23.6-6.9,34.7-12.1c27.5-13,30-34.9,6.7-54c-2.9-2.4-5.5-5.2-4.5-9.2c1-3.8,4.1-6,8-6.4
			c7.2-0.8,14.5-1.3,21.7-2.1c2.5-0.3,6,1,7-2.4c1-3.2-1.9-5.1-4.3-6.1c-18.3-7.9-36.2-16.4-56.8-18c-4.8-0.4-9.1,2.6-13.7,3.5
			c-12.9,2.6-15.5-20.2-18.2-28.2c-0.4-1-0.5-2.2-0.9-3.3c-1.3-3.9-0.4-7.8,1.4-11.4c2.2-4.3,6-7.6,10.3-9.8c4.5-2.3,9.5-3,14.3-4.6
			c1.8-0.6,3.7-1.7,4.7-3.4c0.2-0.3,0.3-0.7,0.2-1c-0.2-0.3-0.6-0.4-1-0.5c-3.9-0.4-7.6,1.1-11.4,2.1c-6.5,1.7-16,2.9-22.5,0.2
			c-2.5-1-3.8-3.7-4.4-6.2c-0.7-2.8-1.3-5.6-2-8.4c-0.5-2.2-1.3-4.3-2-6.5c-1.1-3.8-2.2-8.7,0.5-12.1c2.1-2.6,6.1-3.1,9.1-3.4
			c5.5-0.5,10.9-0.5,16.4-1.3c1-0.1,2-0.3,2.8-1s1.1-2,0.3-2.7c-0.3-0.3-0.8-0.5-1.3-0.6c-3.4-0.8-6.9-0.9-10.3-1.3
			c-7-0.8-15.1-2.3-20.4-7.5c-3.7-3.7-4.5-8.3-5.1-13.2c-0.7-5.7-1.2-11.5-2-17.2c-0.6-3.9-2.6-10.3,1.8-12.9
			c2.4-1.4,6.1-1.2,8.8-1.2c5.4-0.1,11.1,0.4,16.4-1.1c0.5-0.1,1-0.3,1.4-0.7c0.4-0.4,0.6-0.9,0.4-1.4c-0.3-0.7-1.2-0.8-2-0.8
			c-9.8,0.1-27.1-0.5-27.7-13.6c-0.5-11.8-1.4-23.6-1.9-35.4C1410.2,555,1409.3,550.9,1413,549.6z"/>
		<g>
			<path class="st3" d="M1067.9,1258.2c-21.1,0-38.3-17.2-38.3-38.3V1191c0-18.6,8.9-35.2,22.6-45.7c-9-14.2-12.5-29.8-9.9-44.6
				c2.9-16.6,13.3-31.4,29.4-41.6c8.6-5.5,17.3-9.4,25.6-13.1c2.9-1.3,5.8-2.6,8.6-3.9c15.3-7.3,24.6-15,30-25
				c2.4-4.4,3-6.7,3.2-7.5c-0.4-0.7-1.5-2.6-4.7-6.1c-13.1-13.9-16.9-28.7-11.4-43.9c5.5-15.1,19.2-24.5,35.8-24.5
				c1.6,0,3.3,0.1,5,0.3c0.3-0.5,1.4-2.4,1.4-2.4c71.2-125.1,72.4-263.3,64.5-371.3c-21.1-0.8-42-3.9-62.2-9.1
				c-8.8-2.3-35.4-9.2-38.3-38.5c-1.8-18.4,6.9-33.7,26-45.5c4-2.5,8.2-5.6,12.6-8.9c5.8-4.4,12.3-9.2,19.7-13.5
				c-0.2-5.7,1.3-11.4,4.2-16.5c3.8-6.6,9.1-10.5,13.2-12.8c0-0.4,0-0.7,0-1.1c-2.6-1.5-5-3.2-7.1-5.2c-6.3-5.8-9.9-14-10-22.3
				c0-10.3,5.1-19.8,13.7-25.7c1.9-1.3,3.8-2.3,5.6-3.1c-7.9-36.3-23.6-69.5-48-101.3c-6.7-8.7-17.8-23.2-12.3-41
				c5.6-17.8,23.6-23.5,34.3-27c15.2-4.9,31.7-7.3,49-7.3c1.3,0,2.6,0,4,0c2.6-4.5,5.8-8.6,9.5-12.3c-1.4-3.8-2.2-7.9-2.5-12.4
				c-2.3-0.5-4.5-1-6.4-1.6c-8.4-2.4-27.4-11.2-24.1-41.1c0.1-0.6,0.1-1.1,0.2-1.6c-0.5-11.8-0.5-24.3,0.1-38.1l-0.1-0.9
				c-0.4-5.4-1.5-17.9,8.1-28.3c6-6.5,14.5-10.1,24-10.1c0.2,0,0.5-0.1,0.8-0.1c-1-12,3.9-20,7.1-24C1261.2,0,1276,0,1280.8,0
				c13.5,0.1,26.6,0.1,39.7,0.1h38.9c4.5,0,18.1,0,27.8,11.2c3.4,3.9,8.7,12.2,7.5,24.9c0.1,0.3,0.1,0.7,0.2,1.1
				c11.9,0.6,19,6.8,22.2,10.5c9.2,10.5,7.6,23,6.9,27.7l-0.1,0.6c0.1,4,0.2,8,0.3,12c0.2,9.5,0.5,19.3,0.3,29.2l0.1,0.7
				c3.7,28.2-16.1,36.6-22.3,38.5c-0.9,0.3-1.9,0.5-2.8,0.8c-0.3,3.5-1.2,9.4-4.2,15.2c1.9,2.3,3.7,4.8,5.3,7.6c1.7,3.1,2.2,4,9.7,4
				c2.4,0,4.8-0.1,7.3-0.3c2.4-0.2,4.8-0.2,7.2-0.2c12.9,0,25.8,2.4,38.3,7.1c9,3.4,25.6,9.6,30.5,26.9c4.9,17.2-6,31.3-11.3,38.1
				c-16.7,21.6-30.3,46.5-41.6,76.2c-3.4,8.8-5.7,18.5-7.7,28.5c0.6,0.2,1.3,0.5,2,0.8c11.5,5,18.8,17,18.1,29.6
				c-0.6,10.5-6.4,20-15.7,25.4c-0.9,0.5-1.8,1-2.7,1.4c12.3,7.7,15.5,17.9,16.2,24.2c0.1,0.9,0.2,2,0.2,3.1
				c12.7,5.8,25.1,13.8,37.3,24.1l0.6,0.5c7.5,6.3,27.3,22.9,19.9,50c-3.6,13.1-13.9,29.7-42.7,34.3l-4.6,0.7
				c-16.1,2.6-32.7,5.3-49.8,6c-5,44.9-5.6,93.9-1.8,149.7c5.7,84.8,27.1,157.4,65.2,222c0.9,1.4,1.5,2.5,2,3.2c0.1,0,0.1,0,0.2,0
				c2.2-0.2,4.6-0.4,6.9-0.4c17.1,0,30.2,9.2,35.2,24.7c4.8,14.7,0.8,28.7-11.8,41.7c-7.8,8-8.3,9.1-1.7,19.6
				c4.7,7.5,11.9,13.3,24.2,19.6c3.8,1.9,7.6,3.8,11.3,5.6c6.7,3.3,13.7,6.7,20.7,10.5c21,11.4,33.7,28.6,36,48.4
				c1.6,13.8-2.1,27.5-10.4,40.1c13.9,10.5,23,27.2,23,46v28.9c0,21.1-17.2,38.3-38.3,38.3H1067.9z"/>
			<path class="st0" d="M1553.5,1159.6h-14.4c-0.4-0.5-0.6-1-0.7-1.6c-0.9-8.7,11.5-10.5,17.8-16c24-21.4,21.7-47.2-6.2-62.5
				c-10.3-5.6-20.9-10.5-31.3-15.8c-13.7-7-26.1-15.6-34.5-29c-12.7-20.2-11.6-34.6,5.1-51.7c4.5-4.6,7.7-9.1,5.7-15.4
				c-2.4-7.3-9.1-6.8-14.7-6.3c-13.3,1.3-19.6-2.8-27.3-15.9c-42.7-72.4-63.2-150.6-68.8-233.6c-3.6-52.7-3.8-105.2,2.3-157.8
				c1.5-12.9,5.4-19.4,20.1-19.7c18.6-0.3,37.2-3.6,55.7-6.6c9.2-1.5,18.7-4.7,21.6-15.4c3.1-11.2-5.2-17.7-12.1-23.5
				c-15.3-12.9-32.4-23-52.4-27.2c-2.2-0.5-5-1.1-6.1-2.7c-2.1-3,1.4-3.4,3.2-4.4c14.3-8.3,9-14.4-2.8-18
				c-16.3-5,3.4-25.7-13.6-29.9c-0.4-0.1-0.8-3.8,0-4.5c1.6-1.4,4-2.2,6.1-2.9c2.7-0.8,5.4-1.4,8-2.4c2.1-0.8,5.1-2.4,7.4-2.4
				c0.9-0.3,1.9-0.5,2.7-1c1.5-0.9,2.6-2.5,2.7-4.2c0.1-1.7-0.9-3.5-2.5-4.2c-0.4-0.2-0.9-0.3-1.3-0.4c-4-1-8.1-1.6-12-2.7
				c-2.4-0.7-4.7-2.3-5.8-4.6c-2.3-4.8-0.3-11.2,0.6-16c2.6-13.2,5.4-26.4,10.2-39c11.3-29.7,25.8-57.6,45.3-82.8
				c11-14.3,9.5-18-7.8-24.5c-11.1-4.2-22.8-6-34.5-5.2c-16.9,1.2-31.8,0.5-41.6-17.1c-4.4-7.9-13.9-12.2-22.4-16.4
				c-3.2-1.6-9.3-1.6-7.5-7.6c1.2-3.9,5.6-3.2,9-3.7c7-0.9,15.9,1.9,16.6-10.3c0.6-10.7-4.9-12.9-13.9-12.7
				c-5.6,0.2-6.3-4.3-6.3-8.6c0-5.1-2.1-11.4,2.8-14.8c3.8-2.6,9.2-1.8,13.3,1.1c2.8,2,5.1,4.8,7.4,7.4c5,5.6,11.8,5.9,17.9,4
				c6.8-2.1,3.7-9,3.7-13.8c0.2-14-0.4-28.1-0.6-42.1c-0.1-4.8,3.3-12.1-5-12.2c-6.1,0-15.5-3-17.4,6.8c-2.1,10.7-9.6,8.2-16.3,8.2
				c-5.5,0-6.4-3.9-6.8-8.3c-0.6-7.7,0.4-13,10-15c12.1-2.6,5.2-13.4,6.2-20.5c1.3-9-6-8.2-11.8-8.2c-25.2,0-50.4,0-75.5-0.1
				c-6.6,0-12.4,0.9-10.8,9.2c1.3,7-5.6,18.5,7.7,19.6c10.4,0.9,10.8,6.3,10.2,14c-0.4,4.7,0.2,9.9-6.8,9.9
				c-6.9,0-14.1,1.6-16.4-8.6c-2.9-13-14.2-7.9-21.9-7.9c-8.8,0-5.7,8.6-5.9,13.8c-0.6,12.3-0.7,24.6-0.1,36.9
				c0.3,6.4-3.7,15.8,5,18.3c7.7,2.2,16.9,4,21.3-8.4c2.6-7.3,12.1-6.4,18.8-4.6c7.7,2,4.8,9.5,5.6,14.9c1.4,9-4.5,9.1-10.8,9
				c-6.6,0-8.9,3.9-9.5,10.1c-1,10.3,2.1,15.3,13.5,14.5c5.1-0.4,14.2-3.6,15,3.1c0.8,6.6-8.9,5.1-13.9,7
				c-11.3,4.4-21.4,10.8-26.7,21.6c-4.4,9.1-10.4,10.8-19.4,10.5c-15.8-0.6-31.6,1.1-46.8,6c-20.8,6.6-22.1,10.2-9.2,27.1
				c27.9,36.4,46.8,76.7,54.8,122c0.7,4.1,2.3,9.7-0.1,13.5c-1.4,2.3-3.2,2.4-5.6,2.8c-2.8,0.5-5.6,1.1-8.3,1.8
				c-1.5,0.4-3.1,0.8-4.4,1.7c-1.3,0.9-2.3,2.3-2.3,3.9c0,1.3,0.7,2.5,1.7,3.4c1.6,1.5,3.8,2.7,6,3.2c3,0.7,6,1.1,9,1.3
				c1.9,0.1,3.7,0.7,5.6,1c0.3,0,0.5,0.1,0.7,0.2c0.2,0.2,0.3,0.6,0.2,0.7c0,0,0,5.1,0,5.1c0,0-2.4,1.3-2.6,1.5
				c-0.7,0.8-1.2,1.8-1.6,2.8c-0.9,2.1-1.4,4.3-1.6,6.5c-0.4,4.2-0.1,8.4,0,12.5c0.1,3.3-1.2,6.3-3.9,8.3c-2.1,1.6-4.8,2.8-7.2,3.9
				c-2.2,1-4.6,2.1-5.9,4.3c-2.4,4,1.7,7.1,5.2,8.3c2.1,0.7,4.3,1,6.2,2.1c1.5,0.9,3.3,3.1,2.1,5c-1.1,1.7-4.2,2.7-6.1,3
				c-21.7,3-35.7,19.1-52.8,29.7c-7.7,4.7-14.7,10.6-13.7,20.7c1.1,10.8,10.5,13.5,18.9,15.7c20.4,5.3,41.4,8.1,62.5,8.5
				c12.4,0.2,17.7,4.2,18.7,16.8c10.6,136.8,2.7,270.3-67.3,393.4c-6,10.5-10.1,18.5-24,15.9c-6-1.1-13.5-1.1-16.4,6.7
				c-2.5,6.9,1.1,12.1,5.8,17.1c14.2,15.1,15.3,25.9,5.4,44c-9.4,17.3-24.5,27.9-41.7,36.1c-10.5,5-21.6,9.2-31.4,15.5
				c-20.8,13.3-23.8,34.6-8.6,54.2c5.5,7.2,12.8,11.9,20.9,15.5c2.5,1.1,6.2,2,5.9,5.3c-0.1,1.2-2.1,2.7-4,3.5h-12.9
				c-17.3,0-31.4,14-31.4,31.4v28.9c0,6.7,5.4,12.1,12.1,12.1h504.9c6.7,0,12.1-5.4,12.1-12.1V1191
				C1584.9,1173.7,1570.8,1159.6,1553.5,1159.6z"/>
			<g>
				<linearGradient id="SVGID_1_" gradientUnits="userSpaceOnUse" x1="1209.5931" y1="207.3454" x2="1253.7787" y2="358.507">
					<stop  offset="0" style="stop-color:#595C9D"/>
					<stop  offset="1" style="stop-color:#4C5096"/>
				</linearGradient>
				<path class="st4" d="M1187.6,230.3c0,0,27.6,3.9,57.8,1.6c0,0,11.3,57.8,9,139.7C1254.5,371.6,1245.2,257.6,1187.6,230.3z"/>
				
					<linearGradient id="SVGID_00000041980951777084297370000000018691490506178728_" gradientUnits="userSpaceOnUse" x1="1238.2885" y1="944.1747" x2="1275.4979" y2="594.1759">
					<stop  offset="0" style="stop-color:#595C9D"/>
					<stop  offset="1" style="stop-color:#4C5096"/>
				</linearGradient>
				<path style="fill:url(#SVGID_00000041980951777084297370000000018691490506178728_);" d="M1270.2,550.6c0,0,27,294.5-64.5,403.1
					c0,0-11.8,6.5,28.6,6.5c36.6,0,32.4-15.1,35.4-25.9c2.6-9.6,36.3-206.8,9.1-383.7L1270.2,550.6z"/>
				
					<linearGradient id="SVGID_00000170236674667234227730000015568407594079539083_" gradientUnits="userSpaceOnUse" x1="1088.1871" y1="1106.1144" x2="1147.3389" y2="1106.1144">
					<stop  offset="0" style="stop-color:#595C9D"/>
					<stop  offset="1" style="stop-color:#4C5096"/>
				</linearGradient>
				<path style="fill:url(#SVGID_00000170236674667234227730000015568407594079539083_);" d="M1147.3,1067.1
					c-18.5,21.5-78.3,23.5-53,59.3c24,33.9,59.9,15.6,41.9-5.4S1147.3,1067.1,1147.3,1067.1z"/>
				
					<linearGradient id="SVGID_00000065067069669786517880000009989757699838421662_" gradientUnits="userSpaceOnUse" x1="1072.0485" y1="1192.1504" x2="1150.3428" y2="1192.1504">
					<stop  offset="0" style="stop-color:#595C9D"/>
					<stop  offset="1" style="stop-color:#4C5096"/>
				</linearGradient>
				<path style="fill:url(#SVGID_00000065067069669786517880000009989757699838421662_);" d="M1072,1209L1072,1209
					c0-28,9.4-33.7,28-33.7h50.3C1150.3,1175.3,1080.5,1176.2,1072,1209z"/>
				
					<linearGradient id="SVGID_00000129175436613359878960000013121955249681103784_" gradientUnits="userSpaceOnUse" x1="1161.8738" y1="977.1774" x2="1278.7511" y2="977.1774">
					<stop  offset="0" style="stop-color:#595C9D"/>
					<stop  offset="1" style="stop-color:#4C5096"/>
				</linearGradient>
				<path style="fill:url(#SVGID_00000129175436613359878960000013121955249681103784_);" d="M1161.9,971c0,0,42.1,14.5,116.9,12"/>
				
					<linearGradient id="SVGID_00000044899055665869141630000010098525276641180337_" gradientUnits="userSpaceOnUse" x1="1177.4714" y1="515.4515" x2="1290.3132" y2="515.4515">
					<stop  offset="0" style="stop-color:#595C9D"/>
					<stop  offset="1" style="stop-color:#4C5096"/>
				</linearGradient>
				<path style="fill:url(#SVGID_00000044899055665869141630000010098525276641180337_);" d="M1177.5,508.7c0,0,41.4,14,112.8,13.6"
					/>
				
					<linearGradient id="SVGID_00000145018309647927195600000000664931754878941100_" gradientUnits="userSpaceOnUse" x1="1224.1027" y1="448.0002" x2="1270.8759" y2="448.0002">
					<stop  offset="0" style="stop-color:#595C9D"/>
					<stop  offset="1" style="stop-color:#4C5096"/>
				</linearGradient>
				<path style="fill:url(#SVGID_00000145018309647927195600000000664931754878941100_);" d="M1224.1,445.8c0,0,19.8,4.5,46.8,4.4"
					/>
				
					<linearGradient id="SVGID_00000118365789383580628670000011883230211708224170_" gradientUnits="userSpaceOnUse" x1="1237.4747" y1="412.1847" x2="1291.476" y2="412.1847">
					<stop  offset="0" style="stop-color:#595C9D"/>
					<stop  offset="1" style="stop-color:#4C5096"/>
				</linearGradient>
				<path style="fill:url(#SVGID_00000118365789383580628670000011883230211708224170_);" d="M1237.5,410.3c0,0,26.5,4.8,54,3.5"/>
				
					<linearGradient id="SVGID_00000026857857204708519740000004243998861410072762_" gradientUnits="userSpaceOnUse" x1="1244.4316" y1="96.5147" x2="1265.7384" y2="96.5147">
					<stop  offset="0" style="stop-color:#595C9D"/>
					<stop  offset="1" style="stop-color:#4C5096"/>
				</linearGradient>
				<path style="fill:url(#SVGID_00000026857857204708519740000004243998861410072762_);" d="M1265.7,85.9c-1.6-0.2-3.3-0.6-4.7-1.5
					c-2.8-2-3-5.6-3.4-8.7c-0.2-1.9-0.5-4.3-2.9-4.3c0,0-4.6,0-4.6,0c-3.2,0-5.7,2.6-5.7,5.7c0,0,0,44.6,0,44.6
					c0-2.9,0.4-5.7,0.7-8.5c0.3-3.1,0.4-6.2,1-9.2c0.6-2.8,0.7-5.8,2.1-8.3c0.9-1.7,1.8-3.4,3-4.8c1.4-1.6,3-2.4,5-3.2
					C1259.2,86.5,1262.5,86.1,1265.7,85.9z"/>
			</g>
			<g>
				
					<linearGradient id="SVGID_00000076597935694564376370000001036286694383960231_" gradientUnits="userSpaceOnUse" x1="1781.8912" y1="207.3454" x2="1826.0768" y2="358.507" gradientTransform="matrix(-1 0 0 1 3213.5833 0)">
					<stop  offset="0" style="stop-color:#595C9D"/>
					<stop  offset="1" style="stop-color:#4C5096"/>
				</linearGradient>
				<path style="fill:url(#SVGID_00000076597935694564376370000001036286694383960231_);" d="M1453.7,230.3c0,0-27.6,3.9-57.8,1.6
					c0,0-11.3,57.8-9,139.7C1386.8,371.6,1396.1,257.6,1453.7,230.3z"/>
				
					<linearGradient id="SVGID_00000161630082801971884510000001141588819199940017_" gradientUnits="userSpaceOnUse" x1="1810.5865" y1="944.1747" x2="1847.796" y2="594.1759" gradientTransform="matrix(-1 0 0 1 3213.5833 0)">
					<stop  offset="0" style="stop-color:#595C9D"/>
					<stop  offset="1" style="stop-color:#4C5096"/>
				</linearGradient>
				<path style="fill:url(#SVGID_00000161630082801971884510000001141588819199940017_);" d="M1371.1,550.6c0,0-27,294.5,64.5,403.1
					c0,0,11.8,6.5-28.6,6.5c-36.6,0-32.4-15.1-35.4-25.9c-2.6-9.6-36.3-206.8-9.1-383.7L1371.1,550.6z"/>
				
					<linearGradient id="SVGID_00000062169732060962829160000009076110642971728025_" gradientUnits="userSpaceOnUse" x1="1660.4852" y1="1106.1144" x2="1719.6371" y2="1106.1144" gradientTransform="matrix(-1 0 0 1 3213.5833 0)">
					<stop  offset="0" style="stop-color:#595C9D"/>
					<stop  offset="1" style="stop-color:#4C5096"/>
				</linearGradient>
				<path style="fill:url(#SVGID_00000062169732060962829160000009076110642971728025_);" d="M1493.9,1067.1
					c18.5,21.5,78.3,23.5,53,59.3c-24,33.9-59.9,15.6-41.9-5.4S1493.9,1067.1,1493.9,1067.1z"/>
				
					<linearGradient id="SVGID_00000152261414955623538290000001931788559531132057_" gradientUnits="userSpaceOnUse" x1="1644.3467" y1="1192.1504" x2="1722.641" y2="1192.1504" gradientTransform="matrix(-1 0 0 1 3213.5833 0)">
					<stop  offset="0" style="stop-color:#595C9D"/>
					<stop  offset="1" style="stop-color:#4C5096"/>
				</linearGradient>
				<path style="fill:url(#SVGID_00000152261414955623538290000001931788559531132057_);" d="M1569.2,1209L1569.2,1209
					c0-28-9.4-33.7-28-33.7h-50.3C1490.9,1175.3,1560.8,1176.2,1569.2,1209z"/>
				
					<linearGradient id="SVGID_00000023979090182392274380000004120690310774148501_" gradientUnits="userSpaceOnUse" x1="1734.1719" y1="977.1774" x2="1851.0493" y2="977.1774" gradientTransform="matrix(-1 0 0 1 3213.5833 0)">
					<stop  offset="0" style="stop-color:#595C9D"/>
					<stop  offset="1" style="stop-color:#4C5096"/>
				</linearGradient>
				<path style="fill:url(#SVGID_00000023979090182392274380000004120690310774148501_);" d="M1479.4,971c0,0-42.1,14.5-116.9,12"/>
				
					<linearGradient id="SVGID_00000048487625029556367410000013873162133577124268_" gradientUnits="userSpaceOnUse" x1="1749.7697" y1="515.4515" x2="1862.6115" y2="515.4515" gradientTransform="matrix(-1 0 0 1 3213.5833 0)">
					<stop  offset="0" style="stop-color:#595C9D"/>
					<stop  offset="1" style="stop-color:#4C5096"/>
				</linearGradient>
				<path style="fill:url(#SVGID_00000048487625029556367410000013873162133577124268_);" d="M1463.8,508.7c0,0-41.4,14-112.8,13.6"
					/>
				
					<linearGradient id="SVGID_00000135684249067310602540000015324779406509788329_" gradientUnits="userSpaceOnUse" x1="1796.4009" y1="448.0002" x2="1843.174" y2="448.0002" gradientTransform="matrix(-1 0 0 1 3213.5833 0)">
					<stop  offset="0" style="stop-color:#595C9D"/>
					<stop  offset="1" style="stop-color:#4C5096"/>
				</linearGradient>
				<path style="fill:url(#SVGID_00000135684249067310602540000015324779406509788329_);" d="M1417.2,445.8c0,0-19.8,4.5-46.8,4.4"
					/>
				
					<linearGradient id="SVGID_00000088109512622738278500000016033685476379661193_" gradientUnits="userSpaceOnUse" x1="1809.7729" y1="412.1847" x2="1863.7742" y2="412.1847" gradientTransform="matrix(-1 0 0 1 3213.5833 0)">
					<stop  offset="0" style="stop-color:#595C9D"/>
					<stop  offset="1" style="stop-color:#4C5096"/>
				</linearGradient>
				<path style="fill:url(#SVGID_00000088109512622738278500000016033685476379661193_);" d="M1403.8,410.3c0,0-26.5,4.8-54,3.5"/>
				
					<linearGradient id="SVGID_00000054988676671110658460000011111199834713586084_" gradientUnits="userSpaceOnUse" x1="1816.7297" y1="96.5147" x2="1838.0366" y2="96.5147" gradientTransform="matrix(-1 0 0 1 3213.5833 0)">
					<stop  offset="0" style="stop-color:#595C9D"/>
					<stop  offset="1" style="stop-color:#4C5096"/>
				</linearGradient>
				<path style="fill:url(#SVGID_00000054988676671110658460000011111199834713586084_);" d="M1375.5,85.9c1.6-0.2,3.3-0.6,4.7-1.5
					c2.8-2,3-5.6,3.4-8.7c0.2-1.9,0.5-4.3,2.9-4.3c0,0,4.6,0,4.6,0c3.2,0,5.7,2.6,5.7,5.7c0,0,0,44.6,0,44.6c0-2.9-0.4-5.7-0.7-8.5
					c-0.3-3.1-0.4-6.2-1-9.2c-0.6-2.8-0.7-5.8-2.1-8.3c-0.9-1.7-1.8-3.4-3-4.8c-1.4-1.6-3-2.4-5-3.2
					C1382,86.5,1378.8,86.1,1375.5,85.9z"/>
			</g>
			
				<linearGradient id="SVGID_00000005986370734282472240000005615253026556937898_" gradientUnits="userSpaceOnUse" x1="1213.5228" y1="1138.031" x2="1445.8116" y2="1138.031">
				<stop  offset="0" style="stop-color:#595C9D"/>
				<stop  offset="1" style="stop-color:#4C5096"/>
			</linearGradient>
			<path style="fill:url(#SVGID_00000005986370734282472240000005615253026556937898_);" d="M1213.5,1132.5
				c76.7,14.9,154.1,14.6,232.3,0C1445.8,1132.5,1344.2,1144.1,1213.5,1132.5z"/>
		</g>
	</g>
</g>
</svg>
